<?xml version="1.0" encoding="UTF-8"?>
<svg id="Layer_1" data-name="Layer 1" xmlns="http://www.w3.org/2000/svg" viewBox="0 0 432 219.33">
  <defs>
    <style>
      .cls-1 {
        fill: #db1217;
      }

      .cls-2 {
        fill: #e71316;
      }
    </style>
  </defs>
  <g>
    <path class="cls-1" d="M41.23,100.8c29.78,0,41.23-13.24,41.23-37.78V0h-24.82v63.02c0,12.82-5.52,17.51-16.41,17.51s-16.41-4.69-16.41-17.51V0H0v63.02C0,87.56,11.44,100.8,41.23,100.8Z"/>
    <polygon class="cls-1" points="124.37 39.99 124.65 39.99 159.12 98.59 183.94 98.59 183.94 0 159.12 0 159.12 58.6 158.85 58.6 124.37 0 99.55 0 99.55 98.59 124.37 98.59 124.37 39.99"/>
    <polygon class="cls-1" points="24.82 118.54 0 118.54 0 217.13 68.67 217.13 68.67 196.86 24.82 196.86 24.82 118.54"/>
    <path class="cls-1" d="M120.79,116.33c-31.3,0-48.81,21.79-48.81,51.43s17.51,51.57,48.81,51.57,48.81-21.79,48.81-51.57-17.79-51.43-48.81-51.43ZM120.79,199.06c-18.06,0-23.44-14.06-23.44-31.3s5.38-31.16,23.44-31.16,23.44,14.07,23.44,31.16-5.52,31.3-23.44,31.3Z"/>
    <polygon class="cls-1" points="422.94 158.69 422.94 129.8 401.07 129.8 401.07 158.69 393.25 158.69 393.25 136.7 371.4 136.7 371.4 158.69 332.83 158.69 367.35 118.54 340.73 118.54 307.02 158.69 305.43 158.69 305.43 118.54 280.61 118.54 280.61 158.69 242.65 158.69 242.65 180.57 280.61 180.57 280.61 217.13 305.43 217.13 305.43 180.57 316.91 180.57 341.15 217.13 370.1 217.13 343.82 180.57 432 180.57 432 158.69 422.94 158.69"/>
    <path class="cls-1" d="M224.62,199.06c-16.41,0-21.37-12.69-21.37-31.3s4.96-31.16,21.37-31.16c7.83,0,12.54,4.45,15.46,10.33h26.46c-5.65-17.19-19.13-30.6-40.82-30.6-31.16,0-47.85,21.65-47.85,51.85s15.86,51.16,47.16,51.16c21.98,0,35.88-10.87,41.56-26.99h-26.89c-2.94,4.19-7.59,6.72-15.08,6.72Z"/>
  </g>
  <path class="cls-2" d="M423.75,206.25c-1.51,0-2.89-.36-4.14-1.08-1.25-.72-2.25-1.7-2.99-2.94-.74-1.24-1.11-2.63-1.11-4.16s.37-2.92,1.1-4.16c.73-1.24,1.72-2.23,2.97-2.97,1.25-.74,2.65-1.11,4.18-1.11s2.97.37,4.22,1.1c1.25.73,2.24,1.72,2.96,2.96.72,1.24,1.08,2.63,1.08,4.16s-.37,2.93-1.1,4.18c-.73,1.25-1.72,2.24-2.97,2.96-1.25.72-2.65,1.08-4.18,1.08ZM423.75,204.92c1.29,0,2.44-.29,3.46-.87,1.02-.58,1.82-1.39,2.42-2.43.59-1.04.89-2.23.89-3.57s-.29-2.56-.87-3.59c-.58-1.03-1.38-1.83-2.4-2.42-1.02-.58-2.18-.87-3.49-.87s-2.48.3-3.49.89c-1.02.59-1.82,1.41-2.4,2.43-.58,1.03-.87,2.22-.87,3.59s.3,2.56.91,3.59c.61,1.03,1.42,1.83,2.43,2.4,1.02.57,2.16.86,3.42.86ZM420.92,202.02v-8.14h2.86c.94,0,1.7.2,2.27.59.57.4.85,1.02.85,1.86v.04c0,.62-.15,1.1-.46,1.45s-.71.59-1.21.74l2.16,3.46h-1.86l-1.97-3.16h-.85v3.16h-1.78ZM422.71,197.63h1.04c.94,0,1.41-.4,1.41-1.19v-.04c0-.42-.12-.72-.37-.89-.25-.17-.59-.26-1.04-.26h-1.04v2.38Z"/>
</svg>